ply
format ascii 1.0
comment Exported by Aspose.3D 23.2
element vertex 280
property float x
property float y
property float z
property float nx
property float ny
property float nz
property float u
property float v
element face 240
property list uchar int vertex_index
end_header
-2 8.70145694757007 -2.88764567812905E-15 1.4438228390645302E-15 0 -1 -78.7401574803148 -342.577045179924
2 14.1 2.88764567812904E-15 1.4438228390645302E-15 0 -1 78.7401574803148 -555.118110236221
2 8.70145694757007 2.88764567812904E-15 1.4438228390645302E-15 0 -1 78.7401574803148 -342.577045179924
-2 14.1 -2.88764567812905E-15 1.4438228390645302E-15 0 -1 -78.7401574803148 -555.118110236221
2 8.70145694757007 2.88764567812904E-15 -1.4438228390645302E-15 0 1 78.7401574803148 -342.577045179924
2 14.1 2.88764567812904E-15 -1.4438228390645302E-15 0 1 78.7401574803148 -555.118110236221
-2 8.70145694757007 -2.88764567812905E-15 -1.4438228390645302E-15 0 1 -78.7401574803148 -342.577045179924
2 8.70145694757007 2.88764567812904E-15 1 0 3.6585233115097645E-10 342.577045179924 1.0828570668232E-13
2 14.1 2.88764567812904E-15 1 0 3.658523311509764E-10 555.1181102362209 1.0828570668232E-13
2 8.70145694757007 38.38 1 0 3.6585233115097645E-10 342.577045179924 1511.02362204724
2 8.70145694757007 38.38 -1 0 -3.6585233115097645E-10 342.577045179924 1511.02362204724
2 14.1 2.88764567812904E-15 -1 0 -3.658523311509764E-10 555.1181102362209 1.0828570668232E-13
2 8.70145694757007 2.88764567812904E-15 -1 0 -3.6585233115097645E-10 342.577045179924 1.0828570668232E-13
2 8.62701477713378 39.515768042133 1 0 3.658523311509764E-10 339.64625106825895 1555.73889929658
1.99999999999998 14.1 54.39 1 0 3.658523311509765E-10 555.118110236221 2141.33858267717
2 8.40496199200037 40.6321027781708 1 0 3.6585233115097645E-10 330.904015433085 1599.68908575476
2 8.62701477713378 39.515768042133 -1 0 -3.658523311509764E-10 339.64625106825895 1555.73889929658
1.99999999999998 14.1 54.39 -1 0 -3.658523311509765E-10 555.118110236221 2141.33858267717
2 8.62701477713378 39.515768042133 4.775331169996668E-11 -0.99144486137381 -0.13052619222005196 78.7401574803148 1506.6573821903366
-2.00000000000001 8.70145694757007 38.38 2.3927887293417042E-11 -0.997858923238603 -0.06540312923014442 -78.7401574803152 1485.38279372697
2 8.70145694757007 38.38 2.3927887293417042E-11 -0.997858923238603 -0.06540312923014442 78.7401574803148 1485.38279372697
-2.00000000000001 8.62701477713378 39.515768042133 4.775331169996668E-11 -0.99144486137381 -0.13052619222005196 -78.7401574803152 1483.1207491393334
2 8.70145694757007 38.38 -2.3927887293417042E-11 0.997858923238603 0.06540312923014442 78.7401574803148 1485.38279372697
-2.00000000000001 8.70145694757007 38.38 -2.3927887293417042E-11 0.997858923238603 0.06540312923014442 -78.7401574803152 1485.38279372697
2 8.62701477713378 39.515768042133 -4.775331169996668E-11 0.99144486137381 0.13052619222005196 78.7401574803148 1506.6573821903366
-2.00000000000001 8.70145694757007 38.38 0 -1 0 -78.7401574803152 1511.02362204724
2 8.70145694757007 2.88764567812904E-15 0 -1 0 78.7401574803148 1.13686837721616E-13
2 8.70145694757007 38.38 0 -1 0 78.7401574803148 1511.02362204724
-2 8.70145694757007 -2.88764567812905E-15 0 -1 0 -78.7401574803148 -1.13686837721616E-13
-2 8.70145694757007 -2.88764567812905E-15 0 1 0 -78.7401574803148 -1.13686837721616E-13
-2.00000000000001 8.70145694757007 38.38 0 1 0 -78.7401574803152 1511.02362204724
2 8.70145694757007 2.88764567812904E-15 0 1 0 78.7401574803148 1.13686837721616E-13
-2.00000000000001 14.1 54.39 -1 0 -1.4672911775658522E-09 -555.1181102362209 2141.338582677159
-2 8.70145694757007 -2.88764567812905E-15 -1 0 -1.4672911775658526E-09 -342.577045179924 -9.202500520600941E-14
-2.00000000000001 8.70145694757007 38.38 -1 0 -1.4672911775658526E-09 -342.577045179924 1511.02362204724
-2 14.1 -2.88764567812905E-15 -1 0 -1.4672911775658526E-09 -555.118110236221 -9.202500520600941E-14
-2 14.1 -2.88764567812905E-15 1 0 1.4672911775658526E-09 -555.118110236221 -9.202500520600941E-14
-2.00000000000001 14.1 54.39 1 0 1.4672911775658522E-09 -555.1181102362209 2141.338582677159
-2 8.70145694757007 -2.88764567812905E-15 1 0 1.4672911775658526E-09 -342.577045179924 -9.202500520600941E-14
-2.00000000000001 14.1 54.39 0 1 0 78.7401574803155 2141.33858267716
2 14.1 2.88764567812904E-15 0 1 0 -78.7401574803148 1.13686837721616E-13
-2 14.1 -2.88764567812905E-15 0 1 0 78.7401574803148 -1.13686837721616E-13
1.99999999999998 14.1 54.39 0 1 0 -78.7401574803143 2141.33858267717
-2 14.1 -2.88764567812905E-15 0 -1 0 78.7401574803148 -1.13686837721616E-13
2 14.1 2.88764567812904E-15 0 -1 0 -78.7401574803148 1.13686837721616E-13
-2.00000000000001 14.1 54.39 0 -1 0 78.7401574803155 2141.33858267716
-2 14.1 -2.88764567812905E-15 -1.4438228390645302E-15 0 1 -78.7401574803148 -555.118110236221
1.99999999999998 14.1 54.39 0 -1 0 -78.7401574803143 2141.33858267717
-2.00000000000001 14.1 54.39 -1.73258740687743E-14 0 1 78.7401574803148 -555.118110236221
1.99999999999998 -14.1 54.39 -1.73258740687743E-14 0 1 -78.7401574803514 555.118110236221
1.99999999999998 14.1 54.39 -1.73258740687743E-14 0 1 -78.7401574803148 -555.118110236221
-2.00000000000001 -14.1 54.39 -1.73258740687743E-14 0 1 78.7401574802784 555.118110236221
1.99999999999998 14.1 54.39 1.73258740687743E-14 0 -1 -78.7401574803148 -555.118110236221
1.99999999999998 -14.1 54.39 1.73258740687743E-14 0 -1 -78.7401574803514 555.118110236221
-2.00000000000001 14.1 54.39 1.73258740687743E-14 0 -1 78.7401574803148 -555.118110236221
1.99999999999999 3.32990341127317 46.4190979768881 1 0 3.658523311509764E-10 131.09855949894398 1827.52354239717
1.99999999999998 -14.1 54.39 1 0 3.6585233115097645E-10 -555.1181102362209 2141.33858267716
1.99999999999999 4.35072847378503 45.9156827665323 1 0 3.6585233115097645E-10 171.288522589962 1807.70404592647
1.99999999999999 5.29711136586061 45.2833299347551 1 0 3.6585233115097645E-10 208.547691569315 1782.80826514784
1.99999999999999 6.15285921382959 44.5328592138296 1 0 3.6585233115097645E-10 242.238551725574 1753.26217377282
1.99999999999999 6.9033299347550905 43.6771113658606 1 0 3.6585233115097645E-10 271.784643100594 1719.57131361656
1.99999999999999 7.53568276653228 42.730728473785 1 0 3.6585233115097645E-10 296.680423879223 1682.31214463721
2 8.03909797688812 41.7099034112732 1 0 3.6585233115097645E-10 316.499920349926 1642.12218154619
2 8.40496199200037 40.6321027781708 -1 0 -3.6585233115097645E-10 330.904015433085 1599.68908575476
2 8.03909797688812 41.7099034112732 -1 0 -3.6585233115097645E-10 316.499920349926 1642.12218154619
1.99999999999999 7.53568276653228 42.730728473785 -1 0 -3.6585233115097645E-10 296.680423879223 1682.31214463721
1.99999999999999 6.9033299347550905 43.6771113658606 -1 0 -3.6585233115097645E-10 271.784643100594 1719.57131361656
1.99999999999999 6.15285921382959 44.5328592138296 -1 0 -3.6585233115097645E-10 242.238551725574 1753.26217377282
1.99999999999999 5.29711136586061 45.2833299347551 -1 0 -3.6585233115097645E-10 208.547691569315 1782.80826514784
1.99999999999999 4.35072847378503 45.9156827665323 -1 0 -3.6585233115097645E-10 171.288522589962 1807.70404592647
1.99999999999999 3.32990341127317 46.4190979768881 -1 0 -3.658523311509764E-10 131.09855949894398 1827.52354239717
1.99999999999998 -14.1 54.39 -1 0 -3.6585233115097645E-10 -555.1181102362209 2141.33858267716
1.99999999999999 2.25210277817078 46.7849619920004 1 0 3.6585233115097645E-10 88.6654637075109 1841.92763748033
1.99999999999999 2.25210277817078 46.7849619920004 -1 0 -3.6585233115097645E-10 88.6654637075109 1841.92763748033
1.99999999999999 1.13576804213303 47.0070147771338 1 0 3.6585233115097645E-10 44.7152772493319 1850.6698731155
1.99999999999999 1.13576804213303 47.0070147771338 -1 0 -3.6585233115097645E-10 44.7152772493319 1850.6698731155
1.99999999999999 -1.5984317098140299E-15 47.0814569475701 1 0 3.6585233115097645E-10 -6.29303822761428E-14 1853.60066722717
1.99999999999999 -1.5984317098140299E-15 47.0814569475701 -1 0 -3.6585233115097645E-10 -6.29303822761428E-14 1853.60066722717
1.99999999999999 -1.13576804213304 47.0070147771338 1 0 3.6585233115097645E-10 -44.7152772493324 1850.6698731155
1.99999999999999 -1.13576804213304 47.0070147771338 -1 0 -3.6585233115097645E-10 -44.7152772493324 1850.6698731155
1.99999999999999 -2.25210277817079 46.7849619920004 1 0 3.6585233115097645E-10 -88.6654637075113 1841.92763748033
1.99999999999999 -2.25210277817079 46.7849619920004 -1 0 -3.6585233115097645E-10 -88.6654637075113 1841.92763748033
1.99999999999999 -3.3299034112731802 46.4190979768881 1 0 3.6585233115097645E-10 -131.098559498944 1827.52354239717
1.99999999999999 -3.3299034112731802 46.4190979768881 -1 0 -3.6585233115097645E-10 -131.098559498944 1827.52354239717
1.99999999999999 -4.35072847378504 45.9156827665323 1 0 3.6585233115097645E-10 -171.288522589962 1807.70404592647
1.99999999999999 -4.35072847378504 45.9156827665323 -1 0 -3.6585233115097645E-10 -171.288522589962 1807.70404592647
1.99999999999999 -5.29711136586062 45.2833299347551 1 0 3.6585233115097645E-10 -208.547691569316 1782.80826514784
1.99999999999999 -5.29711136586062 45.2833299347551 -1 0 -3.6585233115097645E-10 -208.547691569316 1782.80826514784
1.99999999999999 -6.1528592138296 44.5328592138296 1 0 3.6585233115097645E-10 -242.238551725575 1753.26217377282
1.99999999999999 -6.1528592138296 44.5328592138296 -1 0 -3.6585233115097645E-10 -242.238551725575 1753.26217377282
1.99999999999999 -6.9033299347550905 43.6771113658606 1 0 3.6585233115097645E-10 -271.784643100594 1719.57131361656
1.99999999999999 -6.9033299347550905 43.6771113658606 -1 0 -3.6585233115097645E-10 -271.784643100594 1719.57131361656
1.99999999999999 -7.53568276653228 42.730728473785 1 0 3.6585233115097645E-10 -296.680423879224 1682.31214463721
1.99999999999999 -7.53568276653228 42.730728473785 -1 0 -3.6585233115097645E-10 -296.680423879224 1682.31214463721
2 -8.03909797688812 41.7099034112732 1 0 3.6585233115097645E-10 -316.499920349926 1642.12218154619
2 -8.03909797688812 41.7099034112732 -1 0 -3.6585233115097645E-10 -316.499920349926 1642.12218154619
2 -8.40496199200037 40.6321027781708 1 0 3.6585233115097645E-10 -330.904015433086 1599.68908575476
2 -8.40496199200037 40.6321027781708 -1 0 -3.6585233115097645E-10 -330.904015433086 1599.68908575476
2 -8.627014777133791 39.515768042133 1 0 3.6585233115097645E-10 -339.646251068259 1555.73889929658
2 -8.627014777133791 39.515768042133 -1 0 -3.6585233115097645E-10 -339.646251068259 1555.73889929658
2 -8.70145694757007 38.38 1 0 3.6585233115097645E-10 -342.577045179924 1511.02362204724
2 -8.70145694757007 38.38 -1 0 -3.6585233115097645E-10 -342.577045179924 1511.02362204724
2 -8.70145694757007 2.88764567812904E-15 1 0 3.6585233115097645E-10 -342.577045179924 1.0828570668232E-13
2 -8.70145694757007 2.88764567812904E-15 -1 0 -3.6585233115097645E-10 -342.577045179924 1.0828570668232E-13
2 -14.1 2.88764567812904E-15 1 0 3.6585233115097645E-10 -555.118110236221 1.0828570668232E-13
2 -14.1 2.88764567812904E-15 -1 0 -3.6585233115097645E-10 -555.118110236221 1.0828570668232E-13
-2.00000000000001 -14.1 54.39 0 -1 0 -78.7401574803143 2141.33858267717
2 -14.1 2.88764567812904E-15 0 -1 0 78.7401574803148 1.13686837721616E-13
1.99999999999998 -14.1 54.39 0 -1 0 78.7401574803155 2141.33858267716
-2 -14.1 -2.88764567812905E-15 0 -1 0 -78.7401574803148 -1.13686837721616E-13
-2 -14.1 -2.88764567812905E-15 0 1 0 -78.7401574803148 -1.13686837721616E-13
-2.00000000000001 -14.1 54.39 0 1 0 -78.7401574803143 2141.33858267717
2 -14.1 2.88764567812904E-15 0 1 0 78.7401574803148 1.13686837721616E-13
-2.00000000000001 -14.1 54.39 -1 0 -1.4672911775658522E-09 555.1181102362209 2141.33858267717
-2.00000000000001 -8.70145694757007 38.38 -1 0 -1.4672911775658524E-09 342.577045179924 1511.02362204724
-2 -14.1 -2.88764567812905E-15 -1 0 -1.4672911775658526E-09 555.118110236221 -9.202500520600941E-14
-2.00000000000001 -8.627014777133791 39.515768042133 -1 0 -1.4672911775658526E-09 339.646251068259 1555.73889929658
-2.00000000000001 -8.40496199200037 40.6321027781708 -1 0 -1.4672911775658526E-09 330.904015433085 1599.68908575476
-2.00000000000001 -8.03909797688812 41.7099034112732 -1 0 -1.4672911775658526E-09 316.499920349926 1642.12218154619
-2.00000000000001 -7.53568276653228 42.730728473785 -1 0 -1.4672911775658526E-09 296.680423879223 1682.31214463721
-2.00000000000001 -6.9033299347550905 43.6771113658606 -1 0 -1.4672911775658526E-09 271.784643100594 1719.57131361656
-2.00000000000001 -6.1528592138296 44.5328592138296 -1 0 -1.4672911775658526E-09 242.238551725574 1753.26217377282
-2.00000000000001 -5.29711136586062 45.2833299347551 -1 0 -1.4672911775658526E-09 208.547691569315 1782.80826514784
-2.00000000000001 -4.35072847378504 45.9156827665323 -1 0 -1.4672911775658526E-09 171.288522589962 1807.70404592647
-2.00000000000001 -3.3299034112731802 46.4190979768881 -1 0 -1.4672911775658526E-09 131.098559498944 1827.52354239717
-2.00000000000001 -2.25210277817079 46.7849619920004 -1 0 -1.4672911775658526E-09 88.6654637075109 1841.92763748033
-2.00000000000001 -1.13576804213304 47.0070147771338 -1 0 -1.4672911775658526E-09 44.7152772493319 1850.6698731155
-2.00000000000001 -1.5984317098140299E-15 47.0814569475701 -1 0 -1.4672911775658526E-09 6.29303822761428E-14 1853.60066722717
-2.00000000000001 1.13576804213303 47.0070147771338 -1 0 -1.4672911775658526E-09 -44.7152772493324 1850.6698731155
-2.00000000000001 2.25210277817078 46.7849619920004 -1 0 -1.4672911775658526E-09 -88.6654637075113 1841.92763748033
-2.00000000000001 3.32990341127317 46.4190979768881 -1 0 -1.4672911775658524E-09 -131.09855949894398 1827.52354239717
-2.00000000000001 4.35072847378503 45.9156827665323 -1 0 -1.4672911775658526E-09 -171.288522589962 1807.70404592647
-2.00000000000001 5.29711136586061 45.2833299347551 -1 0 -1.4672911775658526E-09 -208.547691569316 1782.80826514784
-2.00000000000001 6.15285921382959 44.5328592138296 -1 0 -1.4672911775658526E-09 -242.238551725575 1753.26217377282
-2.00000000000001 6.9033299347550905 43.6771113658606 -1 0 -1.4672911775658526E-09 -271.784643100594 1719.57131361656
-2.00000000000001 7.53568276653228 42.730728473785 -1 0 -1.4672911775658526E-09 -296.680423879224 1682.31214463721
-2.00000000000001 8.03909797688812 41.7099034112732 -1 0 -1.4672911775658526E-09 -316.499920349926 1642.12218154619
-2.00000000000001 8.40496199200037 40.6321027781708 -1 0 -1.4672911775658526E-09 -330.904015433086 1599.68908575476
-2.00000000000001 8.62701477713378 39.515768042133 -1 0 -1.4672911775658526E-09 -339.646251068259 1555.73889929658
-2.00000000000001 8.70145694757007 38.38 1 0 1.4672911775658526E-09 -342.577045179924 1511.02362204724
-2.00000000000001 8.62701477713378 39.515768042133 1 0 1.4672911775658526E-09 -339.646251068259 1555.73889929658
-2.00000000000001 8.62701477713378 39.515768042133 -4.775331169996668E-11 0.99144486137381 0.13052619222005196 -78.7401574803152 1483.1207491393334
2 8.40496199200037 40.6321027781708 9.468955099702726E-11 -0.9659258262890682 -0.258819045102521 78.7401574803148 1472.4062861811865
-2.00000000000001 8.40496199200037 40.6321027781708 9.468955099702726E-11 -0.9659258262890682 -0.258819045102521 -78.7401574803152 1440.4172347596832
2 8.40496199200037 40.6321027781708 -9.468955099702726E-11 0.9659258262890682 0.258819045102521 78.7401574803148 1472.4062861811865
-2.00000000000001 8.40496199200037 40.6321027781708 -9.468955099702726E-11 0.9659258262890682 0.258819045102521 -78.7401574803152 1440.4172347596832
2 8.03909797688812 41.7099034112732 1.4000562582362528E-10 -0.9238795325112872 -0.38268343236509006 78.7401574803148 1413.0896991246866
-2.00000000000001 8.03909797688812 41.7099034112732 1.4000562582362528E-10 -0.9238795325112872 -0.38268343236509006 -78.7401574803152 1372.939993396833
2 8.03909797688812 41.7099034112732 -1.4000562582362528E-10 0.9238795325112872 0.38268343236509006 78.7401574803148 1413.0896991246866
-2.00000000000001 8.03909797688812 41.7099034112732 -1.4000562582362528E-10 0.9238795325112872 0.38268343236509006 -78.7401574803152 1372.939993396833
1.99999999999999 7.53568276653228 42.730728473785 1.8292616557548872E-10 -0.866025403784438 -0.500000000000001 78.7401574803148 1329.7225442710433
-2.00000000000001 7.53568276653228 42.730728473785 1.8292616557548872E-10 -0.866025403784438 -0.500000000000001 -78.7401574803152 1281.8435793587366
1.99999999999999 7.53568276653228 42.730728473785 -1.8292616557548872E-10 0.866025403784438 0.500000000000001 78.7401574803148 1329.7225442710433
-2.00000000000001 7.53568276653228 42.730728473785 -1.8292616557548872E-10 0.866025403784438 0.500000000000001 -78.7401574803152 1281.8435793587366
1.99999999999999 6.9033299347550905 43.6771113658606 2.2271678791764064E-10 -0.7933533402912337 -0.6087614290087211 78.7401574803148 1223.7312567535266
-2.00000000000001 6.9033299347550905 43.6771113658606 2.2271678791764064E-10 -0.7933533402912337 -0.6087614290087211 -78.7401574803152 1168.6866775462634
1.99999999999999 6.9033299347550905 43.6771113658606 -2.2271678791764064E-10 0.7933533402912337 0.6087614290087211 78.7401574803148 1223.7312567535266
-2.00000000000001 6.9033299347550905 43.6771113658606 -2.2271678791764064E-10 0.7933533402912337 0.6087614290087211 -78.7401574803152 1168.6866775462634
1.99999999999999 6.15285921382959 44.5328592138296 2.586966642697617E-10 -0.7071067811865479 -0.7071067811865469 78.7401574803148 1066.167405405194
-2.00000000000001 6.15285921382959 44.5328592138296 2.586966642697617E-10 -0.7071067811865479 -0.7071067811865469 -78.7401574803152 1066.167405405194
1.99999999999999 6.15285921382959 44.5328592138296 -2.586966642697617E-10 0.7071067811865479 0.7071067811865469 78.7401574803148 1066.167405405194
-2.00000000000001 6.15285921382959 44.5328592138296 -2.586966642697617E-10 0.7071067811865479 0.7071067811865469 -78.7401574803152 1066.167405405194
-2.00000000000001 5.29711136586061 45.2833299347551 2.902501689719627E-10 -0.6087614290087191 -0.7933533402912358 -78.7401574803152 951.4865199948265
1.99999999999999 5.29711136586061 45.2833299347551 2.902501689719627E-10 -0.6087614290087191 -0.7933533402912358 78.7401574803148 884.2803275182732
1.99999999999999 5.29711136586061 45.2833299347551 -2.902501689719627E-10 0.6087614290087191 0.7933533402912358 78.7401574803148 884.2803275182732
-2.00000000000001 5.29711136586061 45.2833299347551 -2.902501689719627E-10 0.6087614290087191 0.7933533402912358 -78.7401574803152 951.4865199948265
-2.00000000000001 5.29711136586061 45.2833299347551 1 0 1.4672911775658526E-09 -208.547691569316 1782.80826514784
-2.00000000000001 6.15285921382959 44.5328592138296 1 0 1.4672911775658526E-09 -242.238551725575 1753.26217377282
-2.00000000000001 6.9033299347550905 43.6771113658606 1 0 1.4672911775658526E-09 -271.784643100594 1719.57131361656
-2.00000000000001 7.53568276653228 42.730728473785 1 0 1.4672911775658526E-09 -296.680423879224 1682.31214463721
-2.00000000000001 8.03909797688812 41.7099034112732 1 0 1.4672911775658526E-09 -316.499920349926 1642.12218154619
-2.00000000000001 8.40496199200037 40.6321027781708 1 0 1.4672911775658526E-09 -330.904015433086 1599.68908575476
-2.00000000000001 4.35072847378503 45.9156827665323 1 0 1.4672911775658526E-09 -171.288522589962 1807.70404592647
-2.00000000000001 4.35072847378503 45.9156827665323 3.1683741281050273E-10 -0.4999999999999991 -0.8660254037844392 -78.7401574803152 753.894202242077
1.99999999999999 4.35072847378503 45.9156827665323 3.1683741281050273E-10 -0.4999999999999991 -0.8660254037844392 78.7401574803148 753.894202242077
1.99999999999999 4.35072847378503 45.9156827665323 -3.1683741281050273E-10 0.4999999999999991 0.8660254037844392 78.7401574803148 753.894202242077
-2.00000000000001 4.35072847378503 45.9156827665323 -3.1683741281050273E-10 0.4999999999999991 0.8660254037844392 -78.7401574803152 753.894202242077
1.99999999999999 3.32990341127317 46.4190979768881 3.3800348067192886E-10 -0.38268343236509006 -0.9238795325112872 78.74015748031475 577.0056419082799
-2.00000000000001 3.32990341127317 46.4190979768881 3.3800348067192886E-10 -0.38268343236509006 -0.9238795325112872 -78.7401574803152 577.00564190828
1.99999999999999 3.32990341127317 46.4190979768881 -3.3800348067192886E-10 0.38268343236509006 0.9238795325112872 78.74015748031475 577.0056419082799
-2.00000000000001 3.32990341127317 46.4190979768881 -3.3800348067192886E-10 0.38268343236509006 0.9238795325112872 -78.7401574803152 577.00564190828
-2.00000000000001 2.25210277817078 46.7849619920004 3.5338621526678896E-10 -0.25881904510251996 -0.9659258262890692 -78.74015748031526 429.532315339658
1.99999999999999 2.25210277817078 46.7849619920004 3.5338621526678896E-10 -0.25881904510251996 -0.9659258262890692 78.74015748031476 350.95639479082394
1.99999999999999 2.25210277817078 46.7849619920004 -3.5338621526678896E-10 0.25881904510251996 0.9659258262890692 78.74015748031476 350.95639479082394
-2.00000000000001 2.25210277817078 46.7849619920004 -3.5338621526678896E-10 0.25881904510251996 0.9659258262890692 -78.74015748031526 429.532315339658
-2.00000000000001 2.25210277817078 46.7849619920004 1 0 1.4672911775658526E-09 -88.6654637075113 1841.92763748033
-2.00000000000001 3.32990341127317 46.4190979768881 1 0 1.4672911775658524E-09 -131.09855949894398 1827.52354239717
-2.00000000000001 -14.1 54.39 1 0 1.4672911775658522E-09 555.1181102362209 2141.33858267717
-2.00000000000001 -14.1 54.39 1.73258740687743E-14 0 -1 78.7401574802784 555.118110236221
1.99999999999998 -14.1 54.39 0 1 0 78.7401574803155 2141.33858267716
-2.00000000000001 1.13576804213303 47.0070147771338 1 0 1.4672911775658526E-09 -44.7152772493324 1850.6698731155
-2.00000000000001 1.13576804213303 47.0070147771338 3.627224137412653E-10 -0.13052619222005196 -0.99144486137381 -78.74015748031526 236.93448465936152
1.99999999999999 1.13576804213303 47.0070147771338 3.627224137412653E-10 -0.13052619222005196 -0.99144486137381 78.74015748031476 156.67727356236745
1.99999999999999 1.13576804213303 47.0070147771338 -3.627224137412653E-10 0.13052619222005196 0.99144486137381 78.74015748031476 156.67727356236745
-2.00000000000001 1.13576804213303 47.0070147771338 -3.627224137412653E-10 0.13052619222005196 0.99144486137381 -78.74015748031526 236.93448465936152
-2.00000000000001 -1.5984317098140299E-15 47.0814569475701 3.658523311509764E-10 -1.1126530127609048E-09 -1 -26.2467191601053 121.23128397973899
1.99999999999999 -1.5984317098140299E-15 47.0814569475701 3.658523311509764E-10 -1.1126530127609048E-09 -1 -26.2467191601053 121.23128397973899
1.99999999999999 -1.5984317098140299E-15 47.0814569475701 -3.658523311509764E-10 1.1126530127609048E-09 1 -26.2467191601053 121.23128397973899
-2.00000000000001 -1.5984317098140299E-15 47.0814569475701 -3.658523311509764E-10 1.1126530127609048E-09 1 -26.2467191601053 121.23128397973899
-2.00000000000001 -1.5984317098140299E-15 47.0814569475701 1 0 1.4672911775658526E-09 6.29303822761428E-14 1853.60066722717
-2.00000000000001 -1.13576804213304 47.0070147771338 1 0 1.4672911775658526E-09 44.7152772493319 1850.6698731155
-2.00000000000001 -1.13576804213304 47.0070147771338 3.627224137412653E-10 0.13052619222005196 -0.99144486137381 78.74015748031476 156.67727356236745
1.99999999999999 -1.13576804213304 47.0070147771338 3.627224137412653E-10 0.13052619222005196 -0.99144486137381 -78.74015748031526 236.93448465936154
1.99999999999999 -1.13576804213304 47.0070147771338 -3.627224137412653E-10 -0.13052619222005196 0.99144486137381 -78.74015748031526 236.93448465936154
-2.00000000000001 -1.13576804213304 47.0070147771338 -3.627224137412653E-10 -0.13052619222005196 0.99144486137381 78.74015748031476 156.67727356236745
-2.00000000000001 -2.25210277817079 46.7849619920004 3.5338621526678844E-10 0.25881904510252196 -0.9659258262890682 78.74015748031476 350.95639479082394
1.99999999999999 -2.25210277817079 46.7849619920004 3.5338621526678844E-10 0.25881904510252196 -0.9659258262890682 -78.74015748031526 429.532315339658
1.99999999999999 -2.25210277817079 46.7849619920004 -3.5338621526678844E-10 -0.25881904510252196 0.9659258262890682 -78.74015748031526 429.532315339658
-2.00000000000001 -2.25210277817079 46.7849619920004 -3.5338621526678844E-10 -0.25881904510252196 0.9659258262890682 78.74015748031476 350.95639479082394
-2.00000000000001 -2.25210277817079 46.7849619920004 1 0 1.4672911775658526E-09 88.6654637075109 1841.92763748033
-2.00000000000001 -3.3299034112731802 46.4190979768881 1 0 1.4672911775658526E-09 131.098559498944 1827.52354239717
-2.00000000000001 -3.3299034112731802 46.4190979768881 3.380034806719283E-10 0.38268343236509006 -0.9238795325112872 78.74015748031476 539.102766063562
1.99999999999999 -3.3299034112731802 46.4190979768881 3.380034806719283E-10 0.38268343236509006 -0.9238795325112872 -78.7401574803152 614.908517752998
1.99999999999999 -3.3299034112731802 46.4190979768881 -3.380034806719283E-10 -0.38268343236509006 0.9238795325112872 -78.7401574803152 614.908517752998
-2.00000000000001 -3.3299034112731802 46.4190979768881 -3.380034806719283E-10 -0.38268343236509006 0.9238795325112872 78.74015748031476 539.102766063562
-2.00000000000001 -4.35072847378504 45.9156827665323 3.168374128105021E-10 0.500000000000001 -0.866025403784438 78.7401574803148 717.897150804074
1.99999999999999 -4.35072847378504 45.9156827665323 3.168374128105021E-10 0.500000000000001 -0.866025403784438 -78.7401574803152 789.8912536800799
1.99999999999999 -4.35072847378504 45.9156827665323 -3.168374128105021E-10 -0.500000000000001 0.866025403784438 -78.7401574803152 789.8912536800799
-2.00000000000001 -4.35072847378504 45.9156827665323 -3.168374128105021E-10 -0.500000000000001 0.866025403784438 78.7401574803148 717.897150804074
-2.00000000000001 -4.35072847378504 45.9156827665323 1 0 1.4672911775658526E-09 171.288522589962 1807.70404592647
-2.00000000000001 -5.29711136586062 45.2833299347551 1 0 1.4672911775658526E-09 208.547691569315 1782.80826514784
-2.00000000000001 -5.29711136586062 45.2833299347551 2.902501689719616E-10 0.608761429008722 -0.7933533402912337 78.7401574803148 884.2803275182732
1.99999999999999 -5.29711136586062 45.2833299347551 2.902501689719616E-10 0.608761429008722 -0.7933533402912337 -78.7401574803152 951.4865199948265
1.99999999999999 -5.29711136586062 45.2833299347551 -2.902501689719616E-10 -0.608761429008722 0.7933533402912337 -78.7401574803152 951.4865199948265
-2.00000000000001 -5.29711136586062 45.2833299347551 -2.902501689719616E-10 -0.608761429008722 0.7933533402912337 78.7401574803148 884.2803275182732
-2.00000000000001 -6.1528592138296 44.5328592138296 2.586966642697617E-10 0.7071067811865469 -0.7071067811865479 78.7401574803148 1066.167405405194
1.99999999999999 -6.1528592138296 44.5328592138296 2.586966642697617E-10 0.7071067811865469 -0.7071067811865479 -78.7401574803152 1066.167405405194
1.99999999999999 -6.1528592138296 44.5328592138296 -2.586966642697617E-10 -0.7071067811865469 0.7071067811865479 -78.7401574803152 1066.167405405194
-2.00000000000001 -6.1528592138296 44.5328592138296 -2.586966642697617E-10 -0.7071067811865469 0.7071067811865479 78.7401574803148 1066.167405405194
-2.00000000000001 -6.1528592138296 44.5328592138296 1 0 1.4672911775658526E-09 242.238551725574 1753.26217377282
-2.00000000000001 -6.9033299347550905 43.6771113658606 1 0 1.4672911775658526E-09 271.784643100594 1719.57131361656
1.99999999999999 -6.9033299347550905 43.6771113658606 2.2271678791764012E-10 0.7933533402912347 -0.6087614290087211 -78.7401574803152 1168.6866775462634
-2.00000000000001 -6.9033299347550905 43.6771113658606 2.2271678791764012E-10 0.7933533402912347 -0.6087614290087211 78.7401574803148 1223.7312567535266
-2.00000000000001 -6.9033299347550905 43.6771113658606 -2.2271678791764012E-10 -0.7933533402912347 0.6087614290087211 78.7401574803148 1223.7312567535266
1.99999999999999 -6.9033299347550905 43.6771113658606 -2.2271678791764012E-10 -0.7933533402912347 0.6087614290087211 -78.7401574803152 1168.6866775462634
1.99999999999999 -7.53568276653228 42.730728473785 1.8292616557548768E-10 0.866025403784439 -0.5 -78.7401574803152 1281.8435793587364
-2.00000000000001 -7.53568276653228 42.730728473785 1.8292616557548768E-10 0.866025403784439 -0.5 78.7401574803148 1329.7225442710433
-2.00000000000001 -7.53568276653228 42.730728473785 -1.8292616557548768E-10 -0.866025403784439 0.5 78.7401574803148 1329.7225442710433
1.99999999999999 -7.53568276653228 42.730728473785 -1.8292616557548768E-10 -0.866025403784439 0.5 -78.7401574803152 1281.8435793587366
2 -8.03909797688812 41.7099034112732 1.4000562582362474E-10 0.9238795325112872 -0.382683432365089 -78.7401574803152 1372.9399933968334
-2.00000000000001 -8.03909797688812 41.7099034112732 1.4000562582362474E-10 0.9238795325112872 -0.382683432365089 78.7401574803148 1413.0896991246866
-2.00000000000001 -8.03909797688812 41.7099034112732 -1.4000562582362474E-10 -0.9238795325112872 0.382683432365089 78.7401574803148 1413.0896991246866
2 -8.03909797688812 41.7099034112732 -1.4000562582362474E-10 -0.9238795325112872 0.382683432365089 -78.7401574803152 1372.939993396833
2 -8.40496199200037 40.6321027781708 9.468955099702673E-11 0.9659258262890682 -0.258819045102521 -78.7401574803152 1440.4172347596832
-2.00000000000001 -8.40496199200037 40.6321027781708 9.468955099702673E-11 0.9659258262890682 -0.258819045102521 78.7401574803148 1472.4062861811865
-2.00000000000001 -8.40496199200037 40.6321027781708 -9.468955099702673E-11 -0.9659258262890682 0.258819045102521 78.7401574803148 1472.4062861811865
2 -8.40496199200037 40.6321027781708 -9.468955099702673E-11 -0.9659258262890682 0.258819045102521 -78.7401574803152 1440.4172347596832
2 -8.627014777133791 39.515768042133 4.7753311699966046E-11 0.99144486137381 -0.13052619222005096 -78.7401574803152 1483.120749139333
-2.00000000000001 -8.627014777133791 39.515768042133 4.7753311699966046E-11 0.99144486137381 -0.13052619222005096 78.7401574803148 1506.6573821903366
-2.00000000000001 -8.627014777133791 39.515768042133 -4.7753311699966046E-11 -0.99144486137381 0.13052619222005096 78.7401574803148 1506.6573821903366
2 -8.627014777133791 39.515768042133 -4.7753311699966046E-11 -0.99144486137381 0.13052619222005096 -78.7401574803152 1483.1207491393334
2 -8.70145694757007 38.38 2.3927887293415924E-11 0.997858923238604 -0.06540312923014222 -78.7401574803152 1485.38279372697
-2.00000000000001 -8.70145694757007 38.38 2.3927887293415924E-11 0.997858923238604 -0.06540312923014222 78.7401574803148 1485.38279372697
-2.00000000000001 -8.70145694757007 38.38 -2.3927887293415924E-11 -0.997858923238604 0.06540312923014222 78.7401574803148 1485.38279372697
2 -8.70145694757007 38.38 -2.3927887293415924E-11 -0.997858923238604 0.06540312923014222 -78.7401574803152 1485.38279372697
2 -8.70145694757007 2.88764567812904E-15 0 1 0 -78.7401574803148 1.13686837721616E-13
-2.00000000000001 -8.70145694757007 38.38 0 1 0 78.7401574803148 1511.02362204724
2 -8.70145694757007 38.38 0 1 0 -78.7401574803152 1511.02362204724
-2 -8.70145694757007 -2.88764567812905E-15 0 1 0 78.7401574803148 -1.13686837721616E-13
-2 -8.70145694757007 -2.88764567812905E-15 0 -1 0 78.7401574803148 -1.13686837721616E-13
2 -8.70145694757007 2.88764567812904E-15 0 -1 0 -78.7401574803148 1.13686837721616E-13
-2.00000000000001 -8.70145694757007 38.38 0 -1 0 78.7401574803148 1511.02362204724
2 -8.70145694757007 2.88764567812904E-15 1.4438228390645302E-15 0 -1 78.7401574803148 342.577045179924
-2 -14.1 -2.88764567812905E-15 1.4438228390645302E-15 0 -1 -78.7401574803514 555.118110236221
-2 -8.70145694757007 -2.88764567812905E-15 1.4438228390645302E-15 0 -1 -78.7401574803148 342.577045179924
2 -14.1 2.88764567812904E-15 1.4438228390645302E-15 0 -1 78.7401574802784 555.118110236221
2 -14.1 2.88764567812904E-15 -1.4438228390645302E-15 0 1 78.7401574802784 555.118110236221
2 -8.70145694757007 2.88764567812904E-15 -1.4438228390645302E-15 0 1 78.7401574803148 342.577045179924
-2 -14.1 -2.88764567812905E-15 -1.4438228390645302E-15 0 1 -78.7401574803514 555.118110236221
-2 -8.70145694757007 -2.88764567812905E-15 -1.4438228390645302E-15 0 1 -78.7401574803148 342.577045179924
-2 -8.70145694757007 -2.88764567812905E-15 -1 0 -1.4672911775658526E-09 342.577045179924 -9.202500520600941E-14
-2 -8.70145694757007 -2.88764567812905E-15 1 0 1.4672911775658526E-09 342.577045179924 -9.202500520600941E-14
-2.00000000000001 -8.70145694757007 38.38 1 0 1.4672911775658524E-09 342.577045179924 1511.02362204724
-2 -14.1 -2.88764567812905E-15 1 0 1.4672911775658526E-09 555.118110236221 -9.202500520600941E-14
-2.00000000000001 -8.627014777133791 39.515768042133 1 0 1.4672911775658526E-09 339.646251068259 1555.73889929658
-2.00000000000001 -8.40496199200037 40.6321027781708 1 0 1.4672911775658526E-09 330.904015433085 1599.68908575476
-2.00000000000001 -8.03909797688812 41.7099034112732 1 0 1.4672911775658526E-09 316.499920349926 1642.12218154619
-2.00000000000001 -7.53568276653228 42.730728473785 1 0 1.4672911775658526E-09 296.680423879223 1682.31214463721
2 -8.70145694757007 38.38 0 -1 0 -78.7401574803152 1511.02362204724
2 8.70145694757007 38.38 0 1 0 78.7401574803148 1511.02362204724
3 0 1 2
3 1 0 3
3 4 5 6
3 7 8 9
3 10 11 12
3 8 13 9
3 14 13 8
3 13 14 15
3 11 16 17
3 10 16 11
3 18 19 20
3 19 18 21
3 22 23 24
3 25 26 27
3 26 25 28
3 29 30 31
3 32 33 34
3 33 32 35
3 36 37 38
3 39 40 41
3 40 39 42
3 43 44 45
3 46 6 5
3 47 45 44
3 48 49 50
3 49 48 51
3 52 53 54
3 55 14 56
3 57 14 55
3 58 14 57
3 59 14 58
3 60 14 59
3 61 14 60
3 62 14 61
3 15 14 62
3 63 17 16
3 64 17 63
3 65 17 64
3 66 17 65
3 67 17 66
3 68 17 67
3 69 17 68
3 70 17 69
3 71 17 70
3 55 56 72
3 73 71 70
3 72 56 74
3 75 71 73
3 74 56 76
3 77 71 75
3 76 56 78
3 79 71 77
3 78 56 80
3 81 71 79
3 80 56 82
3 83 71 81
3 82 56 84
3 85 71 83
3 84 56 86
3 87 71 85
3 86 56 88
3 89 71 87
3 88 56 90
3 91 71 89
3 90 56 92
3 93 71 91
3 92 56 94
3 95 71 93
3 94 56 96
3 97 71 95
3 96 56 98
3 99 71 97
3 98 56 100
3 101 71 99
3 100 56 102
3 103 71 101
3 102 56 104
3 105 71 103
3 106 107 108
3 107 106 109
3 110 111 112
3 113 114 115
3 113 116 114
3 113 117 116
3 113 118 117
3 113 119 118
3 113 120 119
3 113 121 120
3 113 122 121
3 113 123 122
3 113 124 123
3 113 125 124
3 113 126 125
3 113 127 126
3 113 128 127
3 113 129 128
3 113 130 129
3 32 130 113
3 32 131 130
3 32 132 131
3 32 133 132
3 32 134 133
3 32 135 134
3 32 136 135
3 32 137 136
3 32 138 137
3 32 34 138
3 139 38 37
3 140 139 37
3 141 24 23
3 142 21 18
3 21 142 143
3 24 141 144
3 145 144 141
3 146 143 142
3 143 146 147
3 144 145 148
3 149 148 145
3 150 147 146
3 147 150 151
3 148 149 152
3 153 152 149
3 154 151 150
3 151 154 155
3 152 153 156
3 157 156 153
3 158 155 154
3 155 158 159
3 156 157 160
3 161 160 157
3 158 162 159
3 162 158 163
3 164 160 165
3 161 165 160
3 166 167 37
3 167 168 37
3 168 169 37
3 169 170 37
3 170 171 37
3 171 140 37
3 172 166 37
3 163 173 162
3 173 163 174
3 175 164 176
3 165 176 164
3 177 173 174
3 173 177 178
3 175 176 179
3 180 179 176
3 177 181 178
3 181 177 182
3 183 179 184
3 180 184 179
3 185 186 187
3 187 186 37
3 186 172 37
3 188 54 53
3 189 112 111
3 190 185 187
3 182 191 181
3 191 182 192
3 193 183 194
3 184 194 183
3 192 195 191
3 195 192 196
3 197 193 198
3 194 198 193
3 199 190 187
3 200 199 187
3 196 201 195
3 201 196 202
3 203 197 204
3 198 204 197
3 202 205 201
3 205 202 206
3 207 203 208
3 204 208 203
3 209 200 187
3 210 209 187
3 206 211 205
3 211 206 212
3 213 207 214
3 208 214 207
3 212 215 211
3 215 212 216
3 217 213 218
3 214 218 213
3 219 210 187
3 220 219 187
3 216 221 215
3 221 216 222
3 223 217 224
3 218 224 217
3 222 225 221
3 225 222 226
3 227 223 228
3 224 228 223
3 229 220 187
3 230 229 187
3 225 231 232
3 231 225 226
3 233 234 228
3 235 232 231
3 232 235 236
3 237 238 233
3 239 236 235
3 236 239 240
3 241 242 237
3 243 240 239
3 240 243 244
3 245 246 241
3 247 244 243
3 244 247 248
3 249 250 245
3 251 248 247
3 248 251 252
3 253 254 249
3 255 256 257
3 256 255 258
3 259 260 261
3 262 263 264
3 263 262 265
3 266 267 268
3 269 268 267
3 115 114 270
3 271 272 273
3 273 272 187
3 272 274 187
3 274 275 187
3 275 276 187
3 276 277 187
3 277 230 187
3 278 261 260
3 250 249 254
3 246 245 250
3 242 241 246
3 238 237 242
3 234 233 238
3 227 228 234
3 279 31 30
