<?xml version="1.0" encoding="utf-8"?>
<!-- Generator: Adobe Illustrator 24.3.0, SVG Export Plug-In . SVG Version: 6.00 Build 0)  -->
<svg version="1.1" id="Layer_1" xmlns="http://www.w3.org/2000/svg" xmlns:xlink="http://www.w3.org/1999/xlink" x="0px" y="0px"
	 viewBox="0 0 265 265" style="enable-background:new 0 0 265 265;" xml:space="preserve">
<style type="text/css">
	.st0{fill:#D78855;stroke:#466467;stroke-width:5;stroke-miterlimit:10;}
</style>
<g id="_x23_ffffffff">
	<path class="st0" d="M28.9,28.1c1.6-0.7,3.4-0.4,5.1-0.5c9.5,0.1,19,0,28.6,0.1c0.2,42.6,0,85.3,0.1,127.9
		c0.1,5.8-0.5,11.7,0.8,17.4c3.4-2.9,6.2-6.6,9.1-10c5.3-6.1,10.4-12.4,15.5-18.6c13-14.6,25.7-29.5,38.2-44.7
		c9.4-10.2,18-21.3,27.5-31.3c-3.9-1.2-8-1.2-12-0.8c-5.8,0.5-11.6-1-17.4,0.4c-2.8,1.4-4.6,4.5-6.7,6.9
		c-10,11.9-20.1,23.5-30.1,35.2c-1.9,2.7-4.2,5-6.5,7.1c-0.3-5.1-0.3-10.1,0-15.2C80.9,90,81.4,78,80.7,66.1
		c0.1-3.5,0.1-7.5,2.6-9.9c6.9-8.1,14-16.1,20.8-24.4c1.7-2,3.6-4.4,6.3-4.2c41.7,0.1,83.4-0.2,125.1,0.2c-2.2,4.2-5.4,7.5-8.4,11
		c-13.4,15.8-26.9,31.5-40.3,47.3c-4.5,5-9,10-13.2,15.4c-19.8,22.9-39.4,46-59.1,69c-0.7,0.9-1.2,2-1.6,3.1c1.9,3.9,5,6.8,7.7,10
		c3.2,3.5,6,7.5,9.3,10.9c1.8,2,4.4,1.8,6.7,1.9c5.1-0.1,10.1-0.5,15.2,0c-3.9-7.1-10.2-11.6-14.3-18.5c5.1-6.7,10.8-12.7,16.1-19.1
		c2.9-3.3,5.4-7,8.7-9.7c1.5-0.3,2.5,1.3,3.6,2.2c22.9,26.9,45.7,53.7,68.7,80.5c1.2,1.5,2,3.3,2.5,5.3c-5.2,0.8-10.4,0.4-15.6,0.5
		c-32,0-63.9,0-95.9,0c-3.4-0.1-7.5,0.8-10.1-2.4c-9.2-10.3-17.8-21.4-27.2-31.4c-6.5,6.8-12.4,14.4-18.7,21.5
		c-3,3.3-5.5,7.5-9.2,9.9c-3.3,1.3-6.9,1.2-10.3,1.2c-7.2-0.2-14.4,0.5-21.6-0.8c-0.3-2.1-0.6-4.2-0.7-6.3c0-63.3,0-126.6,0-190
		C28,35.6,27.3,31.5,28.9,28.1z"/>
</g>
<g id="_x23_020403ff">
</g>
</svg>
